solid 
facet normal -0.574734 -0.578654 -0.578654
outer loop
vertex -0.667147 -1.08864 -0.0696963
vertex -1.08864 -0.670002 -0.0696963
vertex -1.08864 -0.0608763 -0.678822
endloop
endfacet
facet normal -0.576816 -0.578418 -0.576816
outer loop
vertex -0.0608762 -1.08864 -0.675967
vertex -0.667147 -1.08864 -0.0696963
vertex -1.08864 -0.0608763 -0.678822
endloop
endfacet
facet normal -0.57356 -0.57518 -0.583264
outer loop
vertex -0.0608762 -1.08864 -0.675967
vertex -1.08864 -0.0608763 -0.678822
vertex -0.662918 -0.0608763 -1.09746
endloop
endfacet
facet normal -0.57542 -0.57542 -0.581192
outer loop
vertex -0.0608762 -1.08864 -0.675967
vertex -0.662918 -0.0608763 -1.09746
vertex -0.0608762 -0.662918 -1.09746
endloop
endfacet
facet normal -0.702335 -0.707124 -0.0818624
outer loop
vertex -0.786941 -1.08864 0.958069
vertex -1.08864 -0.670002 -0.0696963
vertex -0.667147 -1.08864 -0.0696963
endloop
endfacet
facet normal -0.702456 -0.707013 -0.0817816
outer loop
vertex -1.08864 -0.788885 0.958069
vertex -1.08864 -0.670002 -0.0696963
vertex -0.786941 -1.08864 0.958069
endloop
endfacet
facet normal -0.70038 -0.704924 0.112027
outer loop
vertex -0.622547 -1.08864 1.98583
vertex -1.08864 -0.788885 0.958069
vertex -0.786941 -1.08864 0.958069
endloop
endfacet
facet normal -0.699787 -0.705586 0.111565
outer loop
vertex -1.08864 -0.626378 1.98583
vertex -1.08864 -0.788885 0.958069
vertex -0.622547 -1.08864 1.98583
endloop
endfacet
facet normal -0.702996 -0.708822 -0.0580377
outer loop
vertex -0.707397 -1.08864 3.0136
vertex -1.08864 -0.626378 1.98583
vertex -0.622547 -1.08864 1.98583
endloop
endfacet
facet normal -0.70402 -0.70787 -0.0572295
outer loop
vertex -1.08864 -0.70947 3.0136
vertex -1.08864 -0.626378 1.98583
vertex -0.707397 -1.08864 3.0136
endloop
endfacet
facet normal -0.689726 -0.693497 0.208184
outer loop
vertex -0.397181 -1.08864 4.04136
vertex -1.08864 -0.70947 3.0136
vertex -0.707397 -1.08864 3.0136
endloop
endfacet
facet normal -0.690803 -0.692044 0.209445
outer loop
vertex -1.08864 -0.398421 4.04136
vertex -1.08864 -0.70947 3.0136
vertex -0.397181 -1.08864 4.04136
endloop
endfacet
facet normal -0.705648 -0.50103 0.50103
outer loop
vertex -1.08864 -0.398421 4.04136
vertex -0.598565 -0.0608763 5.06913
vertex -1.08864 -0.0608763 4.37891
endloop
endfacet
facet normal -0.613949 -0.615051 0.494752
outer loop
vertex -0.397181 -1.08864 4.04136
vertex -0.598565 -0.0608763 5.06913
vertex -1.08864 -0.398421 4.04136
endloop
endfacet
facet normal -0.6147 -0.6147 0.494254
outer loop
vertex -0.397181 -1.08864 4.04136
vertex -0.0608762 -0.598565 5.06913
vertex -0.598565 -0.0608763 5.06913
endloop
endfacet
facet normal -0.500582 -0.706283 0.500582
outer loop
vertex -0.397181 -1.08864 4.04136
vertex -0.0608762 -1.08864 4.37767
vertex -0.0608762 -0.598565 5.06913
endloop
endfacet
facet normal -0.57735 -0.57735 0.57735
outer loop
vertex -0.0608762 -0.598565 5.06913
vertex -0.0608762 -0.0608763 5.60682
vertex -0.598565 -0.0608763 5.06913
endloop
endfacet
facet normal -0.717491 -0.0661169 -0.693423
outer loop
vertex -0.662918 -0.0608763 -1.09746
vertex -1.08864 0.966889 -0.754958
vertex -0.757627 0.966889 -1.09746
endloop
endfacet
facet normal -0.700174 -0.0527459 -0.712021
outer loop
vertex -1.08864 -0.0608763 -0.678822
vertex -1.08864 0.966889 -0.754958
vertex -0.662918 -0.0608763 -1.09746
endloop
endfacet
facet normal -0.807871 -0.135328 0.573611
outer loop
vertex -0.770729 0.966889 5.06913
vertex -1.08864 -0.0608763 4.37891
vertex -0.598565 -0.0608763 5.06913
endloop
endfacet
facet normal -0.824187 -0.117156 0.554067
outer loop
vertex -1.08864 0.966889 4.59623
vertex -1.08864 -0.0608763 4.37891
vertex -0.770729 0.966889 5.06913
endloop
endfacet
facet normal -0.702198 -0.117627 0.702198
outer loop
vertex -0.0608762 -0.0608763 5.60682
vertex -0.0608762 0.966889 5.77898
vertex -0.770729 0.966889 5.06913
endloop
endfacet
facet normal -0.702198 -0.117627 0.702198
outer loop
vertex -0.598565 -0.0608763 5.06913
vertex -0.0608762 -0.0608763 5.60682
vertex -0.770729 0.966889 5.06913
endloop
endfacet
facet normal -0.755505 0.122219 -0.643642
outer loop
vertex -0.757627 0.966889 -1.09746
vertex -1.08864 1.99465 -0.51376
vertex -0.591364 1.99465 -1.09746
endloop
endfacet
facet normal -0.709688 0.160964 -0.685882
outer loop
vertex -1.08864 0.966889 -0.754958
vertex -1.08864 1.99465 -0.51376
vertex -0.757627 0.966889 -1.09746
endloop
endfacet
facet normal -0.81733 0.1734 0.549458
outer loop
vertex -0.552683 1.99465 5.06913
vertex -1.08864 0.966889 4.59623
vertex -0.770729 0.966889 5.06913
endloop
endfacet
facet normal -0.841916 0.210407 0.496896
outer loop
vertex -1.08864 1.99465 4.16103
vertex -1.08864 0.966889 4.59623
vertex -0.552683 1.99465 5.06913
endloop
endfacet
facet normal -0.699282 0.148356 0.699282
outer loop
vertex -0.0608762 0.966889 5.77898
vertex -0.0608762 1.99465 5.56094
vertex -0.552683 1.99465 5.06913
endloop
endfacet
facet normal -0.699282 0.148356 0.699282
outer loop
vertex -0.770729 0.966889 5.06913
vertex -0.0608762 0.966889 5.77898
vertex -0.552683 1.99465 5.06913
endloop
endfacet
facet normal -0.788823 -0.0777385 -0.609684
outer loop
vertex -0.591364 1.99465 -1.09746
vertex -1.08864 3.02242 -0.585119
vertex -0.692651 3.02242 -1.09746
endloop
endfacet
facet normal -0.760441 -0.044981 -0.647848
outer loop
vertex -1.08864 1.99465 -0.51376
vertex -1.08864 3.02242 -0.585119
vertex -0.591364 1.99465 -1.09746
endloop
endfacet
facet normal -0.855696 -0.112826 0.505029
outer loop
vertex -0.688198 3.02242 5.06913
vertex -1.08864 1.99465 4.16103
vertex -0.552683 1.99465 5.06913
endloop
endfacet
facet normal -0.902353 -0.0284071 0.43006
outer loop
vertex -1.08864 3.02242 4.22892
vertex -1.08864 1.99465 4.16103
vertex -0.688198 3.02242 5.06913
endloop
endfacet
facet normal -0.704053 -0.0928318 0.704053
outer loop
vertex -0.0608762 1.99465 5.56094
vertex -0.0608762 3.02242 5.69645
vertex -0.688198 3.02242 5.06913
endloop
endfacet
facet normal -0.704053 -0.0928318 0.704053
outer loop
vertex -0.552683 1.99465 5.06913
vertex -0.0608762 1.99465 5.56094
vertex -0.688198 3.02242 5.06913
endloop
endfacet
facet normal -0.792966 0.239257 -0.560322
outer loop
vertex -0.692651 3.02242 -1.09746
vertex -1.08864 4.05018 -0.098202
vertex -0.382549 4.05018 -1.09746
endloop
endfacet
facet normal -0.759965 0.278278 -0.587379
outer loop
vertex -1.08864 3.02242 -0.585119
vertex -1.08864 4.05018 -0.098202
vertex -0.692651 3.02242 -1.09746
endloop
endfacet
facet normal -0.999768 0.0188548 0.0103659
outer loop
vertex -1.08864 3.8738 1.98583
vertex -1.08531 4.05018 1.98583
vertex -1.08864 4.05018 1.66499
endloop
endfacet
facet normal -0.99982 0.0188558 -0.00192625
outer loop
vertex -1.08864 3.97879 3.0136
vertex -1.08531 4.05018 1.98583
vertex -1.08864 3.8738 1.98583
endloop
endfacet
facet normal -0.999836 0.0180196 -0.00198438
outer loop
vertex -1.08735 4.05018 3.0136
vertex -1.08531 4.05018 1.98583
vertex -1.08864 3.97879 3.0136
endloop
endfacet
facet normal -0.999763 0.0180183 0.0121824
outer loop
vertex -1.08864 3.2839 4.04136
vertex -1.08735 4.05018 3.0136
vertex -1.08864 3.97879 3.0136
endloop
endfacet
facet normal -0.999803 0.0164793 0.0110349
outer loop
vertex -1.07601 4.05018 4.04136
vertex -1.08735 4.05018 3.0136
vertex -1.08864 3.2839 4.04136
endloop
endfacet
facet normal -0.9996 0.016476 0.0229706
outer loop
vertex -1.08864 3.02242 4.22892
vertex -1.07601 4.05018 4.04136
vertex -1.08864 3.2839 4.04136
endloop
endfacet
facet normal -0.899115 0.0892474 0.428517
outer loop
vertex -1.08864 3.02242 4.22892
vertex -0.688198 3.02242 5.06913
vertex -1.07601 4.05018 4.04136
endloop
endfacet
facet normal -0.716997 0.338706 0.609256
outer loop
vertex -0.688198 3.02242 5.06913
vertex -0.202686 4.05018 5.06913
vertex -1.07601 4.05018 4.04136
endloop
endfacet
facet normal -0.670679 0.316826 0.670679
outer loop
vertex -0.0608762 3.02242 5.69645
vertex -0.0608762 4.05018 5.21094
vertex -0.202686 4.05018 5.06913
endloop
endfacet
facet normal -0.670679 0.316826 0.670679
outer loop
vertex -0.688198 3.02242 5.06913
vertex -0.0608762 3.02242 5.69645
vertex -0.202686 4.05018 5.06913
endloop
endfacet
facet normal -0.667898 0.328368 -0.667898
outer loop
vertex -0.0608762 5.07795 -0.606181
vertex -1.08864 4.07869 -0.0696963
vertex -0.597361 5.07795 -0.0696963
endloop
endfacet
facet normal -0.701299 0.407141 -0.585163
outer loop
vertex -0.0608762 4.37186 -1.09746
vertex -1.08864 4.07869 -0.0696963
vertex -0.0608762 5.07795 -0.606181
endloop
endfacet
facet normal -0.672558 0.523291 -0.523291
outer loop
vertex -0.0608762 4.37186 -1.09746
vertex -1.08864 4.05018 -0.098202
vertex -1.08864 4.07869 -0.0696963
endloop
endfacet
facet normal -0.632543 0.632543 -0.446965
outer loop
vertex -0.0608762 4.37186 -1.09746
vertex -0.382549 4.05018 -1.09746
vertex -1.08864 4.05018 -0.098202
endloop
endfacet
facet normal -0.8901 0.437613 -0.127347
outer loop
vertex -1.08864 4.37777 0.958069
vertex -0.597361 5.07795 -0.0696963
vertex -1.08864 4.07869 -0.0696963
endloop
endfacet
facet normal -0.894541 0.425166 -0.13795
outer loop
vertex -0.755855 5.07795 0.958069
vertex -0.597361 5.07795 -0.0696963
vertex -1.08864 4.37777 0.958069
endloop
endfacet
facet normal -0.88582 0.421021 0.195101
outer loop
vertex -1.08864 4.05018 1.66499
vertex -0.755855 5.07795 0.958069
vertex -1.08864 4.37777 0.958069
endloop
endfacet
facet normal -0.94932 0.314156 0.00984285
outer loop
vertex -1.08864 4.05018 1.66499
vertex -1.08531 4.05018 1.98583
vertex -0.755855 5.07795 0.958069
endloop
endfacet
facet normal -0.856879 0.475004 0.200324
outer loop
vertex -1.08531 4.05018 1.98583
vertex -0.515581 5.07795 1.98583
vertex -0.755855 5.07795 0.958069
endloop
endfacet
facet normal -0.874606 0.484831 -0.00173584
outer loop
vertex -1.08531 4.05018 1.98583
vertex -1.08735 4.05018 3.0136
vertex -0.515581 5.07795 1.98583
endloop
endfacet
facet normal -0.90934 0.403174 -0.102716
outer loop
vertex -1.08735 4.05018 3.0136
vertex -0.631674 5.07795 3.0136
vertex -0.515581 5.07795 1.98583
endloop
endfacet
facet normal -0.914129 0.405297 0.0100893
outer loop
vertex -1.08735 4.05018 3.0136
vertex -1.07601 4.05018 4.04136
vertex -0.631674 5.07795 3.0136
endloop
endfacet
facet normal -0.712005 0.625966 0.318143
outer loop
vertex -1.07601 4.05018 4.04136
vertex -0.172442 5.07795 4.04136
vertex -0.631674 5.07795 3.0136
endloop
endfacet
facet normal -0.570782 0.590267 0.570782
outer loop
vertex -0.0608762 4.19199 5.06913
vertex -0.0608762 5.07795 4.15293
vertex -0.172442 5.07795 4.04136
endloop
endfacet
facet normal -0.583012 0.583012 0.565856
outer loop
vertex -0.0608762 4.19199 5.06913
vertex -0.172442 5.07795 4.04136
vertex -0.202686 4.05018 5.06913
endloop
endfacet
facet normal -0.633093 0.55659 0.53796
outer loop
vertex -0.202686 4.05018 5.06913
vertex -0.172442 5.07795 4.04136
vertex -1.07601 4.05018 4.04136
endloop
endfacet
facet normal -0.57735 0.57735 0.57735
outer loop
vertex -0.202686 4.05018 5.06913
vertex -0.0608762 4.05018 5.21094
vertex -0.0608762 4.19199 5.06913
endloop
endfacet
facet normal -0.57735 0.57735 -0.57735
outer loop
vertex -0.0608762 5.07795 -0.606181
vertex -0.597361 5.07795 -0.0696963
vertex -0.0608762 5.61443 -0.0696963
endloop
endfacet
facet normal -0.70294 0.70294 -0.108402
outer loop
vertex -0.597361 5.07795 -0.0696963
vertex -0.755855 5.07795 0.958069
vertex -0.0608762 5.77293 0.958069
endloop
endfacet
facet normal -0.70294 0.70294 -0.108402
outer loop
vertex -0.0608762 5.61443 -0.0696963
vertex -0.597361 5.07795 -0.0696963
vertex -0.0608762 5.77293 0.958069
endloop
endfacet
facet normal -0.697639 0.697639 0.163096
outer loop
vertex -0.755855 5.07795 0.958069
vertex -0.515581 5.07795 1.98583
vertex -0.0608762 5.53266 1.98583
endloop
endfacet
facet normal -0.697639 0.697639 0.163096
outer loop
vertex -0.0608762 5.77293 0.958069
vertex -0.755855 5.07795 0.958069
vertex -0.0608762 5.53266 1.98583
endloop
endfacet
facet normal -0.704862 0.704862 -0.079619
outer loop
vertex -0.515581 5.07795 1.98583
vertex -0.631674 5.07795 3.0136
vertex -0.0608762 5.64875 3.0136
endloop
endfacet
facet normal -0.704862 0.704862 -0.079619
outer loop
vertex -0.0608762 5.53266 1.98583
vertex -0.515581 5.07795 1.98583
vertex -0.0608762 5.64875 3.0136
endloop
endfacet
facet normal -0.674253 0.674253 0.301274
outer loop
vertex -0.631674 5.07795 3.0136
vertex -0.172442 5.07795 4.04136
vertex -0.0608762 5.18952 4.04136
endloop
endfacet
facet normal -0.674253 0.674253 0.301274
outer loop
vertex -0.0608762 5.64875 3.0136
vertex -0.631674 5.07795 3.0136
vertex -0.0608762 5.18952 4.04136
endloop
endfacet
facet normal -0.57735 0.57735 0.57735
outer loop
vertex -0.172442 5.07795 4.04136
vertex -0.0608762 5.07795 4.15293
vertex -0.0608762 5.18952 4.04136
endloop
endfacet
facet normal -0.013907 -0.703501 -0.710558
outer loop
vertex 0.966889 -0.683236 -1.09746
vertex -0.0608762 -1.08864 -0.675967
vertex -0.0608762 -0.662918 -1.09746
endloop
endfacet
facet normal -0.01207 -0.705809 -0.708299
outer loop
vertex 0.966889 -1.08864 -0.693481
vertex -0.0608762 -1.08864 -0.675967
vertex 0.966889 -0.683236 -1.09746
endloop
endfacet
facet normal -0.0690169 -0.813917 0.576868
outer loop
vertex 0.966889 -1.08864 4.50063
vertex -0.0608762 -0.598565 5.06913
vertex -0.0608762 -1.08864 4.37767
endloop
endfacet
facet normal -0.0865797 -0.826617 0.556065
outer loop
vertex 0.966889 -0.706213 5.06913
vertex -0.0608762 -0.598565 5.06913
vertex 0.966889 -1.08864 4.50063
endloop
endfacet
facet normal -0.07386 -0.705175 0.705175
outer loop
vertex -0.0608762 -0.598565 5.06913
vertex 0.966889 -0.706213 5.06913
vertex 0.966889 -0.0608763 5.71447
endloop
endfacet
facet normal -0.07386 -0.705175 0.705175
outer loop
vertex -0.0608762 -0.0608763 5.60682
vertex -0.0608762 -0.598565 5.06913
vertex 0.966889 -0.0608763 5.71447
endloop
endfacet
facet normal -0.102676 -0.168729 0.9803
outer loop
vertex 0.966889 -0.0608763 5.71447
vertex 0.966889 0.966889 5.89137
vertex -0.0608762 -0.0608763 5.60682
endloop
endfacet
facet normal -0.107223 -0.164258 0.980573
outer loop
vertex 0.966889 0.966889 5.89137
vertex -0.0608762 0.966889 5.77898
vertex -0.0608762 -0.0608763 5.60682
endloop
endfacet
facet normal -0.107947 0.117456 0.987194
outer loop
vertex 0.966889 0.966889 5.89137
vertex 0.966889 1.99465 5.76908
vertex -0.0608762 0.966889 5.77898
endloop
endfacet
facet normal -0.194336 0.203579 0.959578
outer loop
vertex 0.966889 1.99465 5.76908
vertex -0.0608762 1.99465 5.56094
vertex -0.0608762 0.966889 5.77898
endloop
endfacet
facet normal -0.197034 -0.120989 0.972902
outer loop
vertex 0.966889 1.99465 5.76908
vertex 0.966889 3.02242 5.89689
vertex -0.0608762 1.99465 5.56094
endloop
endfacet
facet normal -0.189838 -0.128345 0.973391
outer loop
vertex 0.966889 3.02242 5.89689
vertex -0.0608762 3.02242 5.69645
vertex -0.0608762 1.99465 5.56094
endloop
endfacet
facet normal -0.188143 0.184266 0.964701
outer loop
vertex 0.966889 3.02242 5.89689
vertex 0.966889 4.05018 5.70058
vertex -0.0608762 3.02242 5.69645
endloop
endfacet
facet normal -0.395623 0.392286 0.830418
outer loop
vertex 0.966889 4.05018 5.70058
vertex -0.0608762 4.05018 5.21094
vertex -0.0608762 3.02242 5.69645
endloop
endfacet
facet normal -0.12219 0.553665 -0.823726
outer loop
vertex -0.0608762 4.37186 -1.09746
vertex 0.966889 5.07795 -0.77532
vertex 0.966889 4.59868 -1.09746
endloop
endfacet
facet normal -0.133873 0.565991 -0.81347
outer loop
vertex -0.0608762 5.07795 -0.606181
vertex 0.966889 5.07795 -0.77532
vertex -0.0608762 4.37186 -1.09746
endloop
endfacet
facet normal -0.333652 0.669347 0.663815
outer loop
vertex -0.0608762 5.07795 4.15293
vertex 0.966889 4.68164 5.06913
vertex 0.966889 5.07795 4.66951
endloop
endfacet
facet normal -0.324006 0.680093 0.657643
outer loop
vertex -0.0608762 4.19199 5.06913
vertex 0.966889 4.68164 5.06913
vertex -0.0608762 5.07795 4.15293
endloop
endfacet
facet normal -0.319247 0.670105 0.670105
outer loop
vertex 0.966889 4.68164 5.06913
vertex -0.0608762 4.19199 5.06913
vertex -0.0608762 4.05018 5.21094
endloop
endfacet
facet normal -0.319247 0.670105 0.670105
outer loop
vertex 0.966889 4.05018 5.70058
vertex 0.966889 4.68164 5.06913
vertex -0.0608762 4.05018 5.21094
endloop
endfacet
facet normal -0.115588 0.702367 -0.702367
outer loop
vertex 0.966889 5.07795 -0.77532
vertex -0.0608762 5.07795 -0.606181
vertex -0.0608762 5.61443 -0.0696963
endloop
endfacet
facet normal -0.115588 0.702367 -0.702367
outer loop
vertex 0.966889 5.78357 -0.0696963
vertex 0.966889 5.07795 -0.77532
vertex -0.0608762 5.61443 -0.0696963
endloop
endfacet
facet normal -0.160958 0.978054 -0.1323
outer loop
vertex 0.966889 5.78357 -0.0696963
vertex -0.0608762 5.61443 -0.0696963
vertex 0.966889 5.9226 0.958069
endloop
endfacet
facet normal -0.142456 0.978237 -0.150857
outer loop
vertex -0.0608762 5.61443 -0.0696963
vertex -0.0608762 5.77293 0.958069
vertex 0.966889 5.9226 0.958069
endloop
endfacet
facet normal -0.140685 0.966075 0.216581
outer loop
vertex 0.966889 5.9226 0.958069
vertex -0.0608762 5.77293 0.958069
vertex 0.966889 5.69219 1.98583
endloop
endfacet
facet normal -0.149449 0.962809 0.225088
outer loop
vertex -0.0608762 5.77293 0.958069
vertex -0.0608762 5.53266 1.98583
vertex 0.966889 5.69219 1.98583
endloop
endfacet
facet normal -0.150355 0.968647 -0.19778
outer loop
vertex 0.966889 5.69219 1.98583
vertex -0.0608762 5.53266 1.98583
vertex 0.966889 5.90204 3.0136
endloop
endfacet
facet normal -0.237861 0.965161 -0.109022
outer loop
vertex -0.0608762 5.53266 1.98583
vertex -0.0608762 5.64875 3.0136
vertex 0.966889 5.90204 3.0136
endloop
endfacet
facet normal -0.23529 0.95473 0.182015
outer loop
vertex 0.966889 5.90204 3.0136
vertex -0.0608762 5.64875 3.0136
vertex 0.966889 5.7061 4.04136
endloop
endfacet
facet normal -0.417081 0.8298 0.370776
outer loop
vertex -0.0608762 5.64875 3.0136
vertex -0.0608762 5.18952 4.04136
vertex 0.966889 5.7061 4.04136
endloop
endfacet
facet normal -0.334889 0.666277 0.666277
outer loop
vertex 0.966889 5.7061 4.04136
vertex -0.0608762 5.18952 4.04136
vertex -0.0608762 5.07795 4.15293
endloop
endfacet
facet normal -0.334889 0.666277 0.666277
outer loop
vertex 0.966889 5.07795 4.66951
vertex 0.966889 5.7061 4.04136
vertex -0.0608762 5.07795 4.15293
endloop
endfacet
facet normal 0.153 -0.69755 -0.700011
outer loop
vertex 1.99465 -0.457806 -1.09746
vertex 0.966889 -1.08864 -0.693481
vertex 0.966889 -0.683236 -1.09746
endloop
endfacet
facet normal 0.151377 -0.696073 -0.701832
outer loop
vertex 1.99465 -1.08864 -0.471803
vertex 0.966889 -1.08864 -0.693481
vertex 1.99465 -0.457806 -1.09746
endloop
endfacet
facet normal 0.0508745 -0.997444 0.0501794
outer loop
vertex 1.99465 -1.08864 1.67121
vertex 1.99465 -1.07281 1.98583
vertex 1.68433 -1.08864 1.98583
endloop
endfacet
facet normal 0.0509043 -0.998027 -0.0367621
outer loop
vertex 1.68433 -1.08864 1.98583
vertex 1.99465 -1.07281 1.98583
vertex 1.99465 -1.08864 2.41554
endloop
endfacet
facet normal 0.0119677 -0.999822 0.0145665
outer loop
vertex 1.99465 -1.08864 4.02658
vertex 1.99465 -1.08843 4.04136
vertex 1.97665 -1.08864 4.04136
endloop
endfacet
facet normal 0.246061 -0.804222 0.541
outer loop
vertex 1.97665 -1.08864 4.04136
vertex 0.966889 -0.706213 5.06913
vertex 0.966889 -1.08864 4.50063
endloop
endfacet
facet normal 0.0111741 -0.933524 0.35834
outer loop
vertex 1.97665 -1.08864 4.04136
vertex 1.99465 -1.08843 4.04136
vertex 0.966889 -0.706213 5.06913
endloop
endfacet
facet normal 0.246089 -0.801964 0.544329
outer loop
vertex 1.99465 -1.08843 4.04136
vertex 1.99465 -0.390836 5.06913
vertex 0.966889 -0.706213 5.06913
endloop
endfacet
facet normal 0.212047 -0.691027 0.691027
outer loop
vertex 0.966889 -0.706213 5.06913
vertex 1.99465 -0.390836 5.06913
vertex 1.99465 -0.0608763 5.39909
endloop
endfacet
facet normal 0.212047 -0.691027 0.691027
outer loop
vertex 0.966889 -0.0608763 5.71447
vertex 0.966889 -0.706213 5.06913
vertex 1.99465 -0.0608763 5.39909
endloop
endfacet
facet normal 0.280994 -0.287245 0.915715
outer loop
vertex 1.99465 -0.0608763 5.39909
vertex 1.99465 0.966889 5.72148
vertex 0.966889 -0.0608763 5.71447
endloop
endfacet
facet normal 0.160779 -0.167419 0.972688
outer loop
vertex 1.99465 0.966889 5.72148
vertex 0.966889 0.966889 5.89137
vertex 0.966889 -0.0608763 5.71447
endloop
endfacet
facet normal 0.0533122 0.0468401 -0.997479
outer loop
vertex 1.99465 1.6483 -1.09746
vertex 1.69035 1.99465 -1.09746
vertex 1.99465 1.99465 -1.0812
endloop
endfacet
facet normal 0.0586585 0.0504944 0.997
outer loop
vertex 1.99465 1.99465 5.05387
vertex 1.73522 1.99465 5.06913
vertex 1.99465 1.69327 5.06913
endloop
endfacet
facet normal 0.582624 0.501535 0.639541
outer loop
vertex 1.99465 1.69327 5.06913
vertex 1.73522 1.99465 5.06913
vertex 0.966889 1.99465 5.76908
endloop
endfacet
facet normal 0.574907 0.546714 0.608758
outer loop
vertex 1.99465 1.69327 5.06913
vertex 0.966889 1.99465 5.76908
vertex 1.99465 0.966889 5.72148
endloop
endfacet
facet normal 0.161968 0.116586 0.979885
outer loop
vertex 1.99465 0.966889 5.72148
vertex 0.966889 1.99465 5.76908
vertex 0.966889 0.966889 5.89137
endloop
endfacet
facet normal 0.0533339 -0.0371484 -0.997886
outer loop
vertex 1.69035 1.99465 -1.09746
vertex 1.99465 2.43154 -1.09746
vertex 1.99465 1.99465 -1.0812
endloop
endfacet
facet normal 0.0586858 -0.040269 0.997464
outer loop
vertex 1.99465 1.99465 5.05387
vertex 1.99465 2.37274 5.06913
vertex 1.73522 1.99465 5.06913
endloop
endfacet
facet normal 0.692494 -0.475176 0.542826
outer loop
vertex 1.73522 1.99465 5.06913
vertex 1.99465 2.37274 5.06913
vertex 1.99465 3.02242 5.63784
endloop
endfacet
facet normal 0.582792 -0.501104 0.639725
outer loop
vertex 1.73522 1.99465 5.06913
vertex 1.99465 3.02242 5.63784
vertex 0.966889 1.99465 5.76908
endloop
endfacet
facet normal 0.24265 -0.11972 0.962698
outer loop
vertex 0.966889 1.99465 5.76908
vertex 1.99465 3.02242 5.63784
vertex 0.966889 3.02242 5.89689
endloop
endfacet
facet normal 0.0168112 0.0145519 -0.999753
outer loop
vertex 1.99465 4.0205 -1.09746
vertex 1.96896 4.05018 -1.09746
vertex 1.99465 4.05018 -1.09703
endloop
endfacet
facet normal 0.0241774 0.0192155 0.999523
outer loop
vertex 1.99465 4.05018 5.06721
vertex 1.91512 4.05018 5.06913
vertex 1.99465 3.95011 5.06913
endloop
endfacet
facet normal 0.507239 0.403138 0.761701
outer loop
vertex 1.99465 3.95011 5.06913
vertex 1.91512 4.05018 5.06913
vertex 0.966889 4.05018 5.70058
endloop
endfacet
facet normal 0.49827 0.453149 0.739177
outer loop
vertex 1.99465 3.95011 5.06913
vertex 0.966889 4.05018 5.70058
vertex 1.99465 3.02242 5.63784
endloop
endfacet
facet normal 0.24032 0.182118 0.953456
outer loop
vertex 1.99465 3.02242 5.63784
vertex 0.966889 4.05018 5.70058
vertex 0.966889 3.02242 5.89689
endloop
endfacet
facet normal 0.0168051 0.030702 -0.999387
outer loop
vertex 0.966889 4.59868 -1.09746
vertex 1.99465 4.05018 -1.09703
vertex 1.96896 4.05018 -1.09746
endloop
endfacet
facet normal 0.285639 0.534604 -0.795367
outer loop
vertex 0.966889 4.59868 -1.09746
vertex 0.966889 5.07795 -0.77532
vertex 1.99465 4.05018 -1.09703
endloop
endfacet
facet normal 0.287844 0.536218 -0.793483
outer loop
vertex 0.966889 5.07795 -0.77532
vertex 1.99465 5.07795 -0.402489
vertex 1.99465 4.05018 -1.09703
endloop
endfacet
facet normal 0.0559701 0.996459 0.0627436
outer loop
vertex 1.99465 5.07795 1.66307
vertex 1.63283 5.07795 1.98583
vertex 1.99465 5.05763 1.98583
endloop
endfacet
facet normal 0.0560203 0.997353 -0.0463482
outer loop
vertex 1.99465 5.05763 1.98583
vertex 1.63283 5.07795 1.98583
vertex 1.99465 5.07795 2.42316
endloop
endfacet
facet normal 0.0238959 0.999567 0.0171434
outer loop
vertex 1.99465 5.07795 3.92811
vertex 1.9134 5.07795 4.04136
vertex 1.99465 5.07601 4.04136
endloop
endfacet
facet normal 0.427458 0.641896 0.636592
outer loop
vertex 1.91512 4.05018 5.06913
vertex 0.966889 5.07795 4.66951
vertex 0.966889 4.68164 5.06913
endloop
endfacet
facet normal 0.0223663 0.380159 0.924651
outer loop
vertex 1.99465 4.05018 5.06721
vertex 0.966889 5.07795 4.66951
vertex 1.91512 4.05018 5.06913
endloop
endfacet
facet normal 0.416066 0.65866 0.626942
outer loop
vertex 1.99465 4.05018 5.06721
vertex 1.9134 5.07795 4.04136
vertex 0.966889 5.07795 4.66951
endloop
endfacet
facet normal 0.016902 0.707012 0.706999
outer loop
vertex 1.99465 4.05018 5.06721
vertex 1.99465 5.07601 4.04136
vertex 1.9134 5.07795 4.04136
endloop
endfacet
facet normal 0.426015 0.639731 0.639731
outer loop
vertex 1.91512 4.05018 5.06913
vertex 0.966889 4.68164 5.06913
vertex 0.966889 4.05018 5.70058
endloop
endfacet
facet normal 0.248466 0.684932 -0.684932
outer loop
vertex 1.99465 5.07795 -0.402489
vertex 0.966889 5.07795 -0.77532
vertex 0.966889 5.78357 -0.0696963
endloop
endfacet
facet normal 0.248466 0.684932 -0.684932
outer loop
vertex 1.99465 5.41074 -0.0696963
vertex 1.99465 5.07795 -0.402489
vertex 0.966889 5.78357 -0.0696963
endloop
endfacet
facet normal 0.327043 0.901544 -0.283304
outer loop
vertex 1.99465 5.41074 -0.0696963
vertex 0.966889 5.78357 -0.0696963
vertex 1.99465 5.73371 0.958069
endloop
endfacet
facet normal 0.179178 0.974938 -0.131878
outer loop
vertex 0.966889 5.78357 -0.0696963
vertex 0.966889 5.9226 0.958069
vertex 1.99465 5.73371 0.958069
endloop
endfacet
facet normal 0.51923 0.625778 0.582067
outer loop
vertex 1.63283 5.07795 1.98583
vertex 1.99465 5.07795 1.66307
vertex 1.99465 5.73371 0.958069
endloop
endfacet
facet normal 0.553426 0.600016 0.577668
outer loop
vertex 1.63283 5.07795 1.98583
vertex 1.99465 5.73371 0.958069
vertex 0.966889 5.69219 1.98583
endloop
endfacet
facet normal 0.176517 0.960457 0.215322
outer loop
vertex 0.966889 5.69219 1.98583
vertex 1.99465 5.73371 0.958069
vertex 0.966889 5.9226 0.958069
endloop
endfacet
facet normal 0.591317 0.641096 -0.489224
outer loop
vertex 1.99465 5.07795 2.42316
vertex 1.63283 5.07795 1.98583
vertex 0.966889 5.69219 1.98583
endloop
endfacet
facet normal 0.58883 0.598492 -0.543219
outer loop
vertex 1.99465 5.07795 2.42316
vertex 0.966889 5.69219 1.98583
vertex 1.99465 5.61386 3.0136
endloop
endfacet
facet normal 0.264909 0.94478 -0.192907
outer loop
vertex 1.99465 5.61386 3.0136
vertex 0.966889 5.69219 1.98583
vertex 0.966889 5.90204 3.0136
endloop
endfacet
facet normal 0.576057 0.705239 0.413274
outer loop
vertex 1.9134 5.07795 4.04136
vertex 1.99465 5.07795 3.92811
vertex 1.99465 5.61386 3.0136
endloop
endfacet
facet normal 0.498856 0.751693 0.431394
outer loop
vertex 1.9134 5.07795 4.04136
vertex 1.99465 5.61386 3.0136
vertex 0.966889 5.7061 4.04136
endloop
endfacet
facet normal 0.265544 0.947042 0.180549
outer loop
vertex 0.966889 5.7061 4.04136
vertex 1.99465 5.61386 3.0136
vertex 0.966889 5.90204 3.0136
endloop
endfacet
facet normal 0.424817 0.640129 0.640129
outer loop
vertex 1.9134 5.07795 4.04136
vertex 0.966889 5.7061 4.04136
vertex 0.966889 5.07795 4.66951
endloop
endfacet
facet normal -0.112879 -0.699687 -0.705476
outer loop
vertex 3.02242 -0.623614 -1.09746
vertex 1.99465 -1.08864 -0.471803
vertex 1.99465 -0.457806 -1.09746
endloop
endfacet
facet normal -0.114899 -0.697584 -0.707231
outer loop
vertex 3.02242 -1.08864 -0.638777
vertex 1.99465 -1.08864 -0.471803
vertex 3.02242 -0.623614 -1.09746
endloop
endfacet
facet normal -0.041732 -0.997867 0.0502007
outer loop
vertex 2.37313 -1.08864 1.98583
vertex 1.99465 -1.07281 1.98583
vertex 1.99465 -1.08864 1.67121
endloop
endfacet
facet normal -0.0417564 -0.998451 -0.0367777
outer loop
vertex 2.37313 -1.08864 1.98583
vertex 1.99465 -1.08864 2.41554
vertex 1.99465 -1.07281 1.98583
endloop
endfacet
facet normal -0.00609965 -0.999875 0.0145672
outer loop
vertex 2.02997 -1.08864 4.04136
vertex 1.99465 -1.08843 4.04136
vertex 1.99465 -1.08864 4.02658
endloop
endfacet
facet normal -0.00609902 -0.999772 0.0204433
outer loop
vertex 3.02242 -1.08864 4.33745
vertex 1.99465 -1.08843 4.04136
vertex 2.02997 -1.08864 4.04136
endloop
endfacet
facet normal -0.152994 -0.833787 0.530463
outer loop
vertex 3.02242 -1.08864 4.33745
vertex 3.02242 -0.62314 5.06913
vertex 1.99465 -1.08843 4.04136
endloop
endfacet
facet normal -0.183831 -0.813308 0.552029
outer loop
vertex 3.02242 -0.62314 5.06913
vertex 1.99465 -0.390836 5.06913
vertex 1.99465 -1.08843 4.04136
endloop
endfacet
facet normal -0.157823 -0.698245 0.698245
outer loop
vertex 1.99465 -0.390836 5.06913
vertex 3.02242 -0.62314 5.06913
vertex 3.02242 -0.0608763 5.63139
endloop
endfacet
facet normal -0.157823 -0.698245 0.698245
outer loop
vertex 1.99465 -0.0608763 5.39909
vertex 1.99465 -0.390836 5.06913
vertex 3.02242 -0.0608763 5.63139
endloop
endfacet
facet normal -0.215368 -0.213819 0.952837
outer loop
vertex 3.02242 -0.0608763 5.63139
vertex 3.02242 0.966889 5.86203
vertex 1.99465 -0.0608763 5.39909
endloop
endfacet
facet normal -0.129382 -0.296788 0.946138
outer loop
vertex 3.02242 0.966889 5.86203
vertex 1.99465 0.966889 5.72148
vertex 1.99465 -0.0608763 5.39909
endloop
endfacet
facet normal -0.0408161 0.0468677 -0.998067
outer loop
vertex 1.99465 1.6483 -1.09746
vertex 1.99465 1.99465 -1.0812
vertex 2.39236 1.99465 -1.09746
endloop
endfacet
facet normal -0.045065 0.0505301 0.997705
outer loop
vertex 1.99465 1.69327 5.06913
vertex 2.33258 1.99465 5.06913
vertex 1.99465 1.99465 5.05387
endloop
endfacet
facet normal -0.511908 0.573989 0.639129
outer loop
vertex 2.33258 1.99465 5.06913
vertex 1.99465 1.69327 5.06913
vertex 1.99465 0.966889 5.72148
endloop
endfacet
facet normal -0.545444 0.569605 0.61485
outer loop
vertex 2.33258 1.99465 5.06913
vertex 1.99465 0.966889 5.72148
vertex 3.02242 1.99465 5.68109
endloop
endfacet
facet normal -0.133472 0.171827 0.976043
outer loop
vertex 3.02242 1.99465 5.68109
vertex 1.99465 0.966889 5.72148
vertex 3.02242 0.966889 5.86203
endloop
endfacet
facet normal -0.0408327 -0.0371704 -0.998474
outer loop
vertex 2.39236 1.99465 -1.09746
vertex 1.99465 1.99465 -1.0812
vertex 1.99465 2.43154 -1.09746
endloop
endfacet
facet normal -0.0450859 -0.0402975 0.99817
outer loop
vertex 2.33258 1.99465 5.06913
vertex 1.99465 2.37274 5.06913
vertex 1.99465 1.99465 5.05387
endloop
endfacet
facet normal -0.570771 -0.510152 0.643401
outer loop
vertex 1.99465 2.37274 5.06913
vertex 2.33258 1.99465 5.06913
vertex 3.02242 1.99465 5.68109
endloop
endfacet
facet normal -0.568108 -0.54205 0.619221
outer loop
vertex 1.99465 2.37274 5.06913
vertex 3.02242 1.99465 5.68109
vertex 1.99465 3.02242 5.63784
endloop
endfacet
facet normal -0.212584 -0.172107 0.961866
outer loop
vertex 1.99465 3.02242 5.63784
vertex 3.02242 1.99465 5.68109
vertex 3.02242 3.02242 5.86499
endloop
endfacet
facet normal -0.00881451 0.0145534 -0.999855
outer loop
vertex 1.99465 4.0205 -1.09746
vertex 1.99465 4.05018 -1.09703
vertex 2.04367 4.05018 -1.09746
endloop
endfacet
facet normal -0.0135437 0.0192193 0.999724
outer loop
vertex 1.99465 3.95011 5.06913
vertex 2.13667 4.05018 5.06913
vertex 1.99465 4.05018 5.06721
endloop
endfacet
facet normal -0.345611 0.490443 0.800012
outer loop
vertex 2.13667 4.05018 5.06913
vertex 1.99465 3.95011 5.06913
vertex 1.99465 3.02242 5.63784
endloop
endfacet
facet normal -0.408142 0.484536 0.773722
outer loop
vertex 2.13667 4.05018 5.06913
vertex 1.99465 3.02242 5.63784
vertex 3.02242 4.05018 5.53637
endloop
endfacet
facet normal -0.205998 0.298026 0.932065
outer loop
vertex 3.02242 4.05018 5.53637
vertex 1.99465 3.02242 5.63784
vertex 3.02242 3.02242 5.86499
endloop
endfacet
facet normal -0.200401 0.5165 -0.832507
outer loop
vertex 2.04367 4.05018 -1.09746
vertex 3.02242 5.07795 -0.695425
vertex 3.02242 4.42994 -1.09746
endloop
endfacet
facet normal -0.00818618 0.371035 -0.928583
outer loop
vertex 2.04367 4.05018 -1.09746
vertex 1.99465 4.05018 -1.09703
vertex 3.02242 5.07795 -0.695425
endloop
endfacet
facet normal -0.229833 0.544927 -0.80637
outer loop
vertex 1.99465 4.05018 -1.09703
vertex 1.99465 5.07795 -0.402489
vertex 3.02242 5.07795 -0.695425
endloop
endfacet
facet normal -0.0586705 0.996304 0.0627338
outer loop
vertex 1.99465 5.05763 1.98583
vertex 2.33977 5.07795 1.98583
vertex 1.99465 5.07795 1.66307
endloop
endfacet
facet normal -0.0587231 0.997198 -0.046341
outer loop
vertex 1.99465 5.05763 1.98583
vertex 1.99465 5.07795 2.42316
vertex 2.33977 5.07795 1.98583
endloop
endfacet
facet normal -0.0128757 0.99977 0.0171468
outer loop
vertex 1.99465 5.07601 4.04136
vertex 2.14548 5.07795 4.04136
vertex 1.99465 5.07795 3.92811
endloop
endfacet
facet normal -0.338191 0.674395 0.656368
outer loop
vertex 2.14548 5.07795 4.04136
vertex 3.02242 4.51742 5.06913
vertex 3.02242 5.07795 4.49321
endloop
endfacet
facet normal -0.0112533 0.873798 0.486159
outer loop
vertex 1.99465 5.07601 4.04136
vertex 3.02242 4.51742 5.06913
vertex 2.14548 5.07795 4.04136
endloop
endfacet
facet normal -0.338722 0.642121 0.687712
outer loop
vertex 1.99465 5.07601 4.04136
vertex 2.13667 4.05018 5.06913
vertex 3.02242 4.51742 5.06913
endloop
endfacet
facet normal -0.00957895 0.707081 0.707068
outer loop
vertex 1.99465 5.07601 4.04136
vertex 1.99465 4.05018 5.06721
vertex 2.13667 4.05018 5.06913
endloop
endfacet
facet normal -0.349482 0.662519 0.662519
outer loop
vertex 2.13667 4.05018 5.06913
vertex 3.02242 4.05018 5.53637
vertex 3.02242 4.51742 5.06913
endloop
endfacet
facet normal -0.197569 0.693169 -0.693169
outer loop
vertex 3.02242 5.07795 -0.695425
vertex 1.99465 5.07795 -0.402489
vertex 1.99465 5.41074 -0.0696963
endloop
endfacet
facet normal -0.197569 0.693169 -0.693169
outer loop
vertex 3.02242 5.70368 -0.0696963
vertex 3.02242 5.07795 -0.695425
vertex 1.99465 5.41074 -0.0696963
endloop
endfacet
facet normal -0.269732 0.946356 -0.17792
outer loop
vertex 3.02242 5.70368 -0.0696963
vertex 1.99465 5.41074 -0.0696963
vertex 3.02242 5.8969 0.958069
endloop
endfacet
facet normal -0.149773 0.943245 -0.296408
outer loop
vertex 1.99465 5.41074 -0.0696963
vertex 1.99465 5.73371 0.958069
vertex 3.02242 5.8969 0.958069
endloop
endfacet
facet normal -0.549621 0.593753 0.587685
outer loop
vertex 1.99465 5.07795 1.66307
vertex 2.33977 5.07795 1.98583
vertex 3.02242 5.70986 1.98583
endloop
endfacet
facet normal -0.553208 0.609968 0.567362
outer loop
vertex 1.99465 5.07795 1.66307
vertex 3.02242 5.70986 1.98583
vertex 1.99465 5.73371 0.958069
endloop
endfacet
facet normal -0.154347 0.972051 0.176903
outer loop
vertex 1.99465 5.73371 0.958069
vertex 3.02242 5.70986 1.98583
vertex 3.02242 5.8969 0.958069
endloop
endfacet
facet normal -0.648384 0.563731 -0.511668
outer loop
vertex 2.33977 5.07795 1.98583
vertex 1.99465 5.07795 2.42316
vertex 1.99465 5.61386 3.0136
endloop
endfacet
facet normal -0.579732 0.626282 -0.521231
outer loop
vertex 2.33977 5.07795 1.98583
vertex 1.99465 5.61386 3.0136
vertex 3.02242 5.70986 1.98583
endloop
endfacet
facet normal -0.228027 0.963826 -0.137997
outer loop
vertex 3.02242 5.70986 1.98583
vertex 1.99465 5.61386 3.0136
vertex 3.02242 5.85701 3.0136
endloop
endfacet
facet normal -0.391023 0.758905 0.520735
outer loop
vertex 1.99465 5.07795 3.92811
vertex 2.14548 5.07795 4.04136
vertex 3.02242 5.52979 4.04136
endloop
endfacet
facet normal -0.398908 0.791156 0.463622
outer loop
vertex 1.99465 5.07795 3.92811
vertex 3.02242 5.52979 4.04136
vertex 1.99465 5.61386 3.0136
endloop
endfacet
facet normal -0.219916 0.929543 0.29595
outer loop
vertex 1.99465 5.61386 3.0136
vertex 3.02242 5.52979 4.04136
vertex 3.02242 5.85701 3.0136
endloop
endfacet
facet normal -0.342322 0.664385 0.664385
outer loop
vertex 2.14548 5.07795 4.04136
vertex 3.02242 5.07795 4.49321
vertex 3.02242 5.52979 4.04136
endloop
endfacet
facet normal 0.221851 -0.684735 -0.694204
outer loop
vertex 4.05018 -0.290623 -1.09746
vertex 3.02242 -1.08864 -0.638777
vertex 3.02242 -0.623614 -1.09746
endloop
endfacet
facet normal 0.222518 -0.685205 -0.693527
outer loop
vertex 4.05018 -1.08864 -0.309018
vertex 3.02242 -1.08864 -0.638777
vertex 4.05018 -0.290623 -1.09746
endloop
endfacet
facet normal 0.0195611 -0.999715 0.0136948
outer loop
vertex 4.05018 -1.08864 1.88323
vertex 4.05018 -1.08724 1.98583
vertex 3.97835 -1.08864 1.98583
endloop
endfacet
facet normal 0.0195629 -0.999807 -0.00171579
outer loop
vertex 3.97835 -1.08864 1.98583
vertex 4.05018 -1.08724 1.98583
vertex 4.05018 -1.08864 2.80484
endloop
endfacet
facet normal 0.0163896 -0.999819 0.0096661
outer loop
vertex 4.05018 -1.08864 3.05725
vertex 4.05018 -1.07913 4.04136
vertex 3.46978 -1.08864 4.04136
endloop
endfacet
facet normal 0.334767 -0.795038 0.505811
outer loop
vertex 3.46978 -1.08864 4.04136
vertex 3.02242 -0.62314 5.06913
vertex 3.02242 -1.08864 4.33745
endloop
endfacet
facet normal 0.0148905 -0.908369 0.417905
outer loop
vertex 3.46978 -1.08864 4.04136
vertex 4.05018 -1.07913 4.04136
vertex 3.02242 -0.62314 5.06913
endloop
endfacet
facet normal 0.342252 -0.682996 0.645276
outer loop
vertex 4.05018 -1.07913 4.04136
vertex 4.05018 -0.108123 5.06913
vertex 3.02242 -0.62314 5.06913
endloop
endfacet
facet normal 0.333987 -0.666503 0.666503
outer loop
vertex 3.02242 -0.62314 5.06913
vertex 4.05018 -0.108123 5.06913
vertex 4.05018 -0.0608763 5.11638
endloop
endfacet
facet normal 0.333987 -0.666503 0.666503
outer loop
vertex 3.02242 -0.0608763 5.63139
vertex 3.02242 -0.62314 5.06913
vertex 4.05018 -0.0608763 5.11638
endloop
endfacet
facet normal 0.413958 -0.382378 0.826091
outer loop
vertex 4.05018 -0.0608763 5.11638
vertex 4.05018 0.966889 5.59211
vertex 3.02242 -0.0608763 5.63139
endloop
endfacet
facet normal 0.248236 -0.212104 0.945193
outer loop
vertex 4.05018 0.966889 5.59211
vertex 3.02242 0.966889 5.86203
vertex 3.02242 -0.0608763 5.63139
endloop
endfacet
facet normal 0.0215322 0.0131895 -0.999681
outer loop
vertex 4.05018 1.72239 -1.09746
vertex 3.88341 1.99465 -1.09746
vertex 4.05018 1.99465 -1.09387
endloop
endfacet
facet normal 0.0251052 0.0189214 0.999506
outer loop
vertex 4.05018 1.99465 5.06479
vertex 3.87747 1.99465 5.06913
vertex 4.05018 1.76549 5.06913
endloop
endfacet
facet normal 0.532982 0.4017 0.744693
outer loop
vertex 4.05018 1.76549 5.06913
vertex 3.87747 1.99465 5.06913
vertex 3.02242 1.99465 5.68109
endloop
endfacet
facet normal 0.527112 0.465556 0.710922
outer loop
vertex 4.05018 1.76549 5.06913
vertex 3.02242 1.99465 5.68109
vertex 4.05018 0.966889 5.59211
endloop
endfacet
facet normal 0.250412 0.167855 0.953477
outer loop
vertex 4.05018 0.966889 5.59211
vertex 3.02242 1.99465 5.68109
vertex 3.02242 0.966889 5.86203
endloop
endfacet
facet normal 0.0215339 -0.00349435 -0.999762
outer loop
vertex 3.88341 1.99465 -1.09746
vertex 4.05018 3.02242 -1.09746
vertex 4.05018 1.99465 -1.09387
endloop
endfacet
facet normal 0.025109 -0.00743186 0.999657
outer loop
vertex 4.05018 1.99465 5.06479
vertex 4.05018 2.57819 5.06913
vertex 3.87747 1.99465 5.06913
endloop
endfacet
facet normal 0.79856 -0.236361 0.553566
outer loop
vertex 3.87747 1.99465 5.06913
vertex 4.05018 2.57819 5.06913
vertex 4.05018 3.02242 5.25881
endloop
endfacet
facet normal 0.564906 -0.240601 0.789299
outer loop
vertex 3.87747 1.99465 5.06913
vertex 4.05018 3.02242 5.25881
vertex 3.02242 1.99465 5.68109
endloop
endfacet
facet normal 0.502098 -0.152322 0.851291
outer loop
vertex 3.02242 1.99465 5.68109
vertex 4.05018 3.02242 5.25881
vertex 3.02242 3.02242 5.86499
endloop
endfacet
facet normal 0.0195629 0.0092489 -0.999766
outer loop
vertex 4.05018 3.02242 -1.09746
vertex 3.56428 4.05018 -1.09746
vertex 4.05018 4.05018 -1.08795
endloop
endfacet
facet normal 0.0268297 0.0157974 0.999515
outer loop
vertex 4.05018 4.05018 5.05711
vertex 3.60254 4.05018 5.06913
vertex 4.05018 3.28993 5.06913
endloop
endfacet
facet normal 0.588411 0.346458 0.730575
outer loop
vertex 4.05018 3.28993 5.06913
vertex 3.60254 4.05018 5.06913
vertex 3.02242 4.05018 5.53637
endloop
endfacet
facet normal 0.62408 0.451945 0.637393
outer loop
vertex 4.05018 3.28993 5.06913
vertex 3.02242 4.05018 5.53637
vertex 4.05018 3.02242 5.25881
endloop
endfacet
facet normal 0.48979 0.265526 0.830423
outer loop
vertex 4.05018 3.02242 5.25881
vertex 3.02242 4.05018 5.53637
vertex 3.02242 3.02242 5.86499
endloop
endfacet
facet normal 0.0195561 0.0279043 -0.999419
outer loop
vertex 3.02242 4.42994 -1.09746
vertex 4.05018 4.05018 -1.08795
vertex 3.56428 4.05018 -1.09746
endloop
endfacet
facet normal 0.198618 0.516691 -0.832815
outer loop
vertex 3.02242 4.42994 -1.09746
vertex 3.02242 5.07795 -0.695425
vertex 4.05018 4.05018 -1.08795
endloop
endfacet
facet normal 0.361551 0.625584 -0.691322
outer loop
vertex 3.02242 5.07795 -0.695425
vertex 4.05018 5.07795 -0.157918
vertex 4.05018 4.05018 -1.08795
endloop
endfacet
facet normal 0.0282303 0.999407 0.0197187
outer loop
vertex 4.05018 5.07795 1.72009
vertex 3.86456 5.07795 1.98583
vertex 4.05018 5.07271 1.98583
endloop
endfacet
facet normal 0.0282354 0.999587 -0.00537888
outer loop
vertex 4.05018 5.07271 1.98583
vertex 3.86456 5.07795 1.98583
vertex 4.05018 5.07795 2.96021
endloop
endfacet
facet normal 0.0261111 0.999584 0.0122092
outer loop
vertex 4.05018 5.07795 3.04308
vertex 3.5834 5.07795 4.04136
vertex 4.05018 5.06576 4.04136
endloop
endfacet
facet normal 0.499884 0.620659 0.604068
outer loop
vertex 3.60254 4.05018 5.06913
vertex 3.02242 5.07795 4.49321
vertex 3.02242 4.51742 5.06913
endloop
endfacet
facet normal 0.0232586 0.498672 0.866478
outer loop
vertex 4.05018 4.05018 5.05711
vertex 3.02242 5.07795 4.49321
vertex 3.60254 4.05018 5.06913
endloop
endfacet
facet normal 0.431618 0.725636 0.535871
outer loop
vertex 4.05018 4.05018 5.05711
vertex 3.5834 5.07795 4.04136
vertex 3.02242 5.07795 4.49321
endloop
endfacet
facet normal 0.0184695 0.707048 0.706924
outer loop
vertex 4.05018 4.05018 5.05711
vertex 4.05018 5.06576 4.04136
vertex 3.5834 5.07795 4.04136
endloop
endfacet
facet normal 0.494881 0.614448 0.614448
outer loop
vertex 3.60254 4.05018 5.06913
vertex 3.02242 4.51742 5.06913
vertex 3.02242 4.05018 5.53637
endloop
endfacet
facet normal 0.346849 0.66321 -0.66321
outer loop
vertex 4.05018 5.07795 -0.157918
vertex 3.02242 5.07795 -0.695425
vertex 3.02242 5.70368 -0.0696963
endloop
endfacet
facet normal 0.346849 0.66321 -0.66321
outer loop
vertex 4.05018 5.16617 -0.0696963
vertex 4.05018 5.07795 -0.157918
vertex 3.02242 5.70368 -0.0696963
endloop
endfacet
facet normal 0.434782 0.831346 -0.346162
outer loop
vertex 4.05018 5.16617 -0.0696963
vertex 3.02242 5.70368 -0.0696963
vertex 4.05018 5.59412 0.958069
endloop
endfacet
facet normal 0.278109 0.944011 -0.17748
outer loop
vertex 3.02242 5.70368 -0.0696963
vertex 3.02242 5.8969 0.958069
vertex 4.05018 5.59412 0.958069
endloop
endfacet
facet normal 0.626071 0.645598 0.437308
outer loop
vertex 3.86456 5.07795 1.98583
vertex 4.05018 5.07795 1.72009
vertex 4.05018 5.59412 0.958069
endloop
endfacet
facet normal 0.534642 0.712514 0.454402
outer loop
vertex 3.86456 5.07795 1.98583
vertex 4.05018 5.59412 0.958069
vertex 3.02242 5.70986 1.98583
endloop
endfacet
facet normal 0.278385 0.944949 0.17197
outer loop
vertex 3.02242 5.70986 1.98583
vertex 4.05018 5.59412 0.958069
vertex 3.02242 5.8969 0.958069
endloop
endfacet
facet normal 0.596299 0.794684 -0.113596
outer loop
vertex 4.05018 5.07795 2.96021
vertex 3.86456 5.07795 1.98583
vertex 3.02242 5.70986 1.98583
endloop
endfacet
facet normal 0.669826 0.697707 -0.254043
outer loop
vertex 4.05018 5.07795 2.96021
vertex 3.02242 5.70986 1.98583
vertex 4.05018 5.09739 3.0136
endloop
endfacet
facet normal 0.590476 0.798908 -0.114385
outer loop
vertex 4.05018 5.09739 3.0136
vertex 3.02242 5.70986 1.98583
vertex 3.02242 5.85701 3.0136
endloop
endfacet
facet normal 0.76216 0.54047 0.356376
outer loop
vertex 3.5834 5.07795 4.04136
vertex 4.05018 5.07795 3.04308
vertex 4.05018 5.09739 3.0136
endloop
endfacet
facet normal 0.600887 0.746026 0.287018
outer loop
vertex 3.5834 5.07795 4.04136
vertex 4.05018 5.09739 3.0136
vertex 3.02242 5.52979 4.04136
endloop
endfacet
facet normal 0.575803 0.779056 0.248038
outer loop
vertex 3.02242 5.52979 4.04136
vertex 4.05018 5.09739 3.0136
vertex 3.02242 5.85701 3.0136
endloop
endfacet
facet normal 0.494901 0.61444 0.61444
outer loop
vertex 3.5834 5.07795 4.04136
vertex 3.02242 5.52979 4.04136
vertex 3.02242 5.07795 4.49321
endloop
endfacet
facet normal 0.33353 -0.666617 -0.666617
outer loop
vertex 4.27993 -0.0608763 -1.09746
vertex 5.07795 -0.0608763 -0.698187
vertex 5.07795 -0.689367 -0.0696963
endloop
endfacet
facet normal 0.50466 -0.50466 -0.700454
outer loop
vertex 4.05018 -0.290623 -1.09746
vertex 4.27993 -0.0608763 -1.09746
vertex 5.07795 -0.689367 -0.0696963
endloop
endfacet
facet normal 0.353143 -0.697348 -0.623695
outer loop
vertex 4.05018 -0.290623 -1.09746
vertex 5.07795 -0.689367 -0.0696963
vertex 4.28951 -1.08864 -0.0696963
endloop
endfacet
facet normal 0.579659 -0.572704 -0.579659
outer loop
vertex 4.05018 -0.290623 -1.09746
vertex 4.28951 -1.08864 -0.0696963
vertex 4.05018 -1.08864 -0.309018
endloop
endfacet
facet normal 0.436293 -0.894724 -0.0954837
outer loop
vertex 4.28951 -1.08864 -0.0696963
vertex 5.07795 -0.813856 0.958069
vertex 4.51444 -1.08864 0.958069
endloop
endfacet
facet normal 0.449167 -0.886965 -0.107434
outer loop
vertex 5.07795 -0.689367 -0.0696963
vertex 5.07795 -0.813856 0.958069
vertex 4.28951 -1.08864 -0.0696963
endloop
endfacet
facet normal 0.0272861 -0.999534 0.0136923
outer loop
vertex 4.51444 -1.08864 0.958069
vertex 4.05018 -1.08724 1.98583
vertex 4.05018 -1.08864 1.88323
endloop
endfacet
facet normal 0.429849 -0.88151 0.195372
outer loop
vertex 4.51444 -1.08864 0.958069
vertex 5.07795 -0.813856 0.958069
vertex 4.05018 -1.08724 1.98583
endloop
endfacet
facet normal 0.456897 -0.859748 0.228209
outer loop
vertex 5.07795 -0.813856 0.958069
vertex 5.07795 -0.541049 1.98583
vertex 4.05018 -1.08724 1.98583
endloop
endfacet
facet normal 0.364266 -0.9304 -0.0408142
outer loop
vertex 4.05018 -1.08864 2.80484
vertex 5.07795 -0.695414 3.0136
vertex 4.07357 -1.08864 3.0136
endloop
endfacet
facet normal 0.357626 -0.933863 -0.00160262
outer loop
vertex 4.05018 -1.08864 2.80484
vertex 4.05018 -1.08724 1.98583
vertex 5.07795 -0.695414 3.0136
endloop
endfacet
facet normal 0.465207 -0.875384 -0.131478
outer loop
vertex 4.05018 -1.08724 1.98583
vertex 5.07795 -0.541049 1.98583
vertex 5.07795 -0.695414 3.0136
endloop
endfacet
facet normal 0.0180396 -0.999791 0.00966582
outer loop
vertex 4.07357 -1.08864 3.0136
vertex 4.05018 -1.07913 4.04136
vertex 4.05018 -1.08864 3.05725
endloop
endfacet
facet normal 0.364517 -0.931043 0.0169147
outer loop
vertex 4.07357 -1.08864 3.0136
vertex 5.07795 -0.695414 3.0136
vertex 4.05018 -1.07913 4.04136
endloop
endfacet
facet normal 0.549027 -0.797087 0.251437
outer loop
vertex 5.07795 -0.695414 3.0136
vertex 5.07795 -0.371211 4.04136
vertex 4.05018 -1.07913 4.04136
endloop
endfacet
facet normal 0.508467 -0.508467 0.694926
outer loop
vertex 5.07795 -0.0608763 4.3517
vertex 4.09743 -0.0608763 5.06913
vertex 4.05018 -0.108123 5.06913
endloop
endfacet
facet normal 0.465598 -0.625787 0.625787
outer loop
vertex 5.07795 -0.0608763 4.3517
vertex 4.05018 -0.108123 5.06913
vertex 5.07795 -0.371211 4.04136
endloop
endfacet
facet normal 0.447699 -0.649977 0.614081
outer loop
vertex 5.07795 -0.371211 4.04136
vertex 4.05018 -0.108123 5.06913
vertex 4.05018 -1.07913 4.04136
endloop
endfacet
facet normal 0.57735 -0.57735 0.57735
outer loop
vertex 4.05018 -0.108123 5.06913
vertex 4.09743 -0.0608763 5.06913
vertex 4.05018 -0.0608763 5.11638
endloop
endfacet
facet normal 0.434729 -0.0803155 -0.896973
outer loop
vertex 5.07795 -0.0608763 -0.698187
vertex 4.44401 0.966889 -1.09746
vertex 5.07795 0.966889 -0.790214
endloop
endfacet
facet normal 0.446314 -0.0712514 -0.892035
outer loop
vertex 4.27993 -0.0608763 -1.09746
vertex 4.44401 0.966889 -1.09746
vertex 5.07795 -0.0608763 -0.698187
endloop
endfacet
facet normal 0.570158 -0.260202 0.77924
outer loop
vertex 5.07795 0.966889 4.69489
vertex 4.09743 -0.0608763 5.06913
vertex 5.07795 -0.0608763 4.3517
endloop
endfacet
facet normal 0.574144 -0.265758 0.774424
outer loop
vertex 4.57316 0.966889 5.06913
vertex 4.09743 -0.0608763 5.06913
vertex 5.07795 0.966889 4.69489
endloop
endfacet
facet normal 0.672026 -0.311065 0.672026
outer loop
vertex 4.09743 -0.0608763 5.06913
vertex 4.57316 0.966889 5.06913
vertex 4.05018 0.966889 5.59211
endloop
endfacet
facet normal 0.672026 -0.311065 0.672026
outer loop
vertex 4.05018 -0.0608763 5.11638
vertex 4.09743 -0.0608763 5.06913
vertex 4.05018 0.966889 5.59211
endloop
endfacet
facet normal 0.425285 0.221691 -0.877488
outer loop
vertex 4.05018 1.72239 -1.09746
vertex 5.07795 0.966889 -0.790214
vertex 4.44401 0.966889 -1.09746
endloop
endfacet
facet normal 0.294895 0.0126059 -0.955447
outer loop
vertex 4.05018 1.72239 -1.09746
vertex 4.05018 1.99465 -1.09387
vertex 5.07795 0.966889 -0.790214
endloop
endfacet
facet normal 0.545993 0.316852 -0.775562
outer loop
vertex 4.05018 1.99465 -1.09387
vertex 5.07795 1.99465 -0.370326
vertex 5.07795 0.966889 -0.790214
endloop
endfacet
facet normal 0.994851 0.079372 0.0630171
outer loop
vertex 5.07795 1.99465 1.46853
vertex 5.04518 1.99465 1.98583
vertex 5.07795 1.58394 1.98583
endloop
endfacet
facet normal 0.994575 0.07935 -0.0672648
outer loop
vertex 5.07795 1.58394 1.98583
vertex 5.04518 1.99465 1.98583
vertex 5.07795 1.99465 2.47034
endloop
endfacet
facet normal 0.999461 0.0275676 0.0178481
outer loop
vertex 5.07795 1.99465 3.88298
vertex 5.07512 1.99465 4.04136
vertex 5.07795 1.89211 4.04136
endloop
endfacet
facet normal 0.0288908 0.0189195 0.999404
outer loop
vertex 4.57316 0.966889 5.06913
vertex 4.05018 1.99465 5.06479
vertex 4.05018 1.76549 5.06913
endloop
endfacet
facet normal 0.569424 0.292991 0.768058
outer loop
vertex 5.07795 0.966889 4.69489
vertex 4.05018 1.99465 5.06479
vertex 4.57316 0.966889 5.06913
endloop
endfacet
facet normal 0.643891 0.411806 0.644841
outer loop
vertex 5.07795 0.966889 4.69489
vertex 5.07512 1.99465 4.04136
vertex 4.05018 1.99465 5.06479
endloop
endfacet
facet normal 0.998859 0.027551 0.039005
outer loop
vertex 5.07795 0.966889 4.69489
vertex 5.07795 1.89211 4.04136
vertex 5.07512 1.99465 4.04136
endloop
endfacet
facet normal 0.641653 0.420194 0.641653
outer loop
vertex 4.57316 0.966889 5.06913
vertex 4.05018 1.76549 5.06913
vertex 4.05018 0.966889 5.59211
endloop
endfacet
facet normal -nan(ind) -nan(ind) -nan(ind)
outer loop
vertex 4.05018 3.02242 -1.09746
vertex 4.05018 1.99465 -1.09387
vertex 4.05018 3.02242 -1.09746
endloop
endfacet
facet normal 0.477107 -0.0030717 -0.87884
outer loop
vertex 4.05018 3.02242 -1.09746
vertex 5.07795 3.02242 -0.539506
vertex 4.05018 1.99465 -1.09387
endloop
endfacet
facet normal 0.570509 -0.133397 -0.810385
outer loop
vertex 5.07795 3.02242 -0.539506
vertex 5.07795 1.99465 -0.370326
vertex 4.05018 1.99465 -1.09387
endloop
endfacet
facet normal 0.996353 -0.0574286 0.0631122
outer loop
vertex 5.07795 1.99465 1.46853
vertex 5.07795 2.56316 1.98583
vertex 5.04518 1.99465 1.98583
endloop
endfacet
facet normal 0.996075 -0.0574126 -0.0673663
outer loop
vertex 5.04518 1.99465 1.98583
vertex 5.07795 2.56316 1.98583
vertex 5.07795 1.99465 2.47034
endloop
endfacet
facet normal 0.999827 -0.005163 0.0178547
outer loop
vertex 5.07795 1.99465 3.88298
vertex 5.07795 2.5424 4.04136
vertex 5.07512 1.99465 4.04136
endloop
endfacet
facet normal 0.691389 -0.295209 0.659419
outer loop
vertex 5.07795 3.02242 4.19041
vertex 4.23986 3.02242 5.06913
vertex 4.05018 2.57819 5.06913
endloop
endfacet
facet normal 0.686721 -0.215556 0.694227
outer loop
vertex 5.07795 2.5424 4.04136
vertex 5.07795 3.02242 4.19041
vertex 4.05018 2.57819 5.06913
endloop
endfacet
facet normal 0.707005 -0.00525753 0.707189
outer loop
vertex 5.07795 2.5424 4.04136
vertex 4.05018 2.57819 5.06913
vertex 4.05018 1.99465 5.06479
endloop
endfacet
facet normal 0.706581 -0.00364871 0.707623
outer loop
vertex 5.07795 2.5424 4.04136
vertex 4.05018 1.99465 5.06479
vertex 5.07512 1.99465 4.04136
endloop
endfacet
facet normal 0.676927 -0.289034 0.676927
outer loop
vertex 4.05018 2.57819 5.06913
vertex 4.23986 3.02242 5.06913
vertex 4.05018 3.02242 5.25881
endloop
endfacet
facet normal 0.704115 0.00656878 -0.710056
outer loop
vertex 4.05018 3.02242 -1.09746
vertex 4.05018 4.05018 -1.08795
vertex 5.07703 4.05018 -0.0696963
endloop
endfacet
facet normal -nan(ind) -nan(ind) -nan(ind)
outer loop
vertex 4.05018 3.02242 -1.09746
vertex 4.05018 3.02242 -1.09746
vertex 5.07703 4.05018 -0.0696963
endloop
endfacet
facet normal 0.701798 0.0111156 -0.712289
outer loop
vertex 4.05018 3.02242 -1.09746
vertex 5.07703 4.05018 -0.0696963
vertex 5.07795 3.99238 -0.0696963
endloop
endfacet
facet normal 0.438992 0.391667 -0.808631
outer loop
vertex 4.05018 3.02242 -1.09746
vertex 5.07795 3.99238 -0.0696963
vertex 5.07795 3.02242 -0.539506
endloop
endfacet
facet normal 0.999756 0.0158349 -0.0153834
outer loop
vertex 5.07795 3.99238 -0.0696963
vertex 5.07703 4.05018 -0.0696963
vertex 5.07795 4.05018 -0.0101976
endloop
endfacet
facet normal 0.999675 0.0176399 0.0183807
outer loop
vertex 5.07795 4.05018 1.6189
vertex 5.0712 4.05018 1.98583
vertex 5.07795 3.66784 1.98583
endloop
endfacet
facet normal 0.99974 0.0217536 -0.006841
outer loop
vertex 5.07795 3.66784 1.98583
vertex 5.07666 4.05018 3.0136
vertex 5.07795 3.99105 3.0136
endloop
endfacet
facet normal 0.99983 0.0176426 -0.00531154
outer loop
vertex 5.0712 4.05018 1.98583
vertex 5.07666 4.05018 3.0136
vertex 5.07795 3.66784 1.98583
endloop
endfacet
facet normal 0.999792 0.0162817 0.0122672
outer loop
vertex 5.07795 3.99105 3.0136
vertex 5.06438 4.05018 4.04136
vertex 5.07795 3.2167 4.04136
endloop
endfacet
facet normal 0.999692 0.0217525 0.0119511
outer loop
vertex 5.07666 4.05018 3.0136
vertex 5.06438 4.05018 4.04136
vertex 5.07795 3.99105 3.0136
endloop
endfacet
facet normal 0.0222821 0.0157992 0.999627
outer loop
vertex 4.23986 3.02242 5.06913
vertex 4.05018 4.05018 5.05711
vertex 4.05018 3.28993 5.06913
endloop
endfacet
facet normal 0.71649 0.140221 0.683359
outer loop
vertex 5.07795 3.02242 4.19041
vertex 4.05018 4.05018 5.05711
vertex 4.23986 3.02242 5.06913
endloop
endfacet
facet normal 0.703267 0.111119 0.702188
outer loop
vertex 5.07795 3.02242 4.19041
vertex 5.06438 4.05018 4.04136
vertex 4.05018 4.05018 5.05711
endloop
endfacet
facet normal 0.999642 0.0162792 0.0212195
outer loop
vertex 5.07795 3.02242 4.19041
vertex 5.07795 3.2167 4.04136
vertex 5.06438 4.05018 4.04136
endloop
endfacet
facet normal 0.632107 0.448197 0.632107
outer loop
vertex 4.23986 3.02242 5.06913
vertex 4.05018 3.28993 5.06913
vertex 4.05018 3.02242 5.25881
endloop
endfacet
facet normal 0.592244 0.540879 -0.597241
outer loop
vertex 4.13841 5.07795 -0.0696963
vertex 5.07703 4.05018 -0.0696963
vertex 4.05018 4.05018 -1.08795
endloop
endfacet
facet normal 0.595611 0.538975 -0.595611
outer loop
vertex 4.05018 5.07795 -0.157918
vertex 4.13841 5.07795 -0.0696963
vertex 4.05018 4.05018 -1.08795
endloop
endfacet
facet normal 0.706435 0.63879 -0.30479
outer loop
vertex 5.07795 4.05018 -0.0101976
vertex 4.56636 5.07795 0.958069
vertex 5.07795 4.51218 0.958069
endloop
endfacet
facet normal 0.889933 0.455886 -0.0136935
outer loop
vertex 5.07795 4.05018 -0.0101976
vertex 5.07703 4.05018 -0.0696963
vertex 4.56636 5.07795 0.958069
endloop
endfacet
facet normal 0.705795 0.644582 -0.293884
outer loop
vertex 5.07703 4.05018 -0.0696963
vertex 4.13841 5.07795 -0.0696963
vertex 4.56636 5.07795 0.958069
endloop
endfacet
facet normal 0.707558 0.706518 0.0139399
outer loop
vertex 5.0712 4.05018 1.98583
vertex 4.05018 5.07795 1.72009
vertex 4.05018 5.07271 1.98583
endloop
endfacet
facet normal 0.707687 0.706406 0.013012
outer loop
vertex 5.07795 4.05018 1.6189
vertex 4.05018 5.07795 1.72009
vertex 5.0712 4.05018 1.98583
endloop
endfacet
facet normal 0.655137 0.611445 0.443769
outer loop
vertex 5.07795 4.05018 1.6189
vertex 4.56636 5.07795 0.958069
vertex 4.05018 5.07795 1.72009
endloop
endfacet
facet normal 0.671566 0.607259 0.424541
outer loop
vertex 5.07795 4.05018 1.6189
vertex 5.07795 4.51218 0.958069
vertex 4.56636 5.07795 0.958069
endloop
endfacet
facet normal 0.0147769 0.999876 -0.00538043
outer loop
vertex 4.05018 5.07271 1.98583
vertex 4.05018 5.07795 2.96021
vertex 4.06962 5.07795 3.0136
endloop
endfacet
facet normal 0.707525 0.706484 -0.0169866
outer loop
vertex 4.05018 5.07271 1.98583
vertex 4.06962 5.07795 3.0136
vertex 5.0712 4.05018 1.98583
endloop
endfacet
facet normal 0.714267 0.699863 -0.0037945
outer loop
vertex 5.0712 4.05018 1.98583
vertex 4.06962 5.07795 3.0136
vertex 5.07666 4.05018 3.0136
endloop
endfacet
facet normal 0.707561 0.7066 0.00863061
outer loop
vertex 4.05018 5.07795 3.04308
vertex 4.05018 5.06576 4.04136
vertex 5.06438 4.05018 4.04136
endloop
endfacet
facet normal 0.494906 0.805342 0.326332
outer loop
vertex 4.05018 5.07795 3.04308
vertex 5.06438 4.05018 4.04136
vertex 4.06962 5.07795 3.0136
endloop
endfacet
facet normal 0.714246 0.699842 0.00853863
outer loop
vertex 4.06962 5.07795 3.0136
vertex 5.06438 4.05018 4.04136
vertex 5.07666 4.05018 3.0136
endloop
endfacet
facet normal 0.577907 0.577122 0.577021
outer loop
vertex 5.06438 4.05018 4.04136
vertex 4.05018 5.06576 4.04136
vertex 4.05018 4.05018 5.05711
endloop
endfacet
facet normal 0.57735 0.57735 -0.57735
outer loop
vertex 4.13841 5.07795 -0.0696963
vertex 4.05018 5.07795 -0.157918
vertex 4.05018 5.16617 -0.0696963
endloop
endfacet
facet normal 0.678316 0.678316 -0.282442
outer loop
vertex 4.56636 5.07795 0.958069
vertex 4.13841 5.07795 -0.0696963
vertex 4.05018 5.16617 -0.0696963
endloop
endfacet
facet normal 0.678316 0.678316 -0.282442
outer loop
vertex 4.05018 5.59412 0.958069
vertex 4.56636 5.07795 0.958069
vertex 4.05018 5.16617 -0.0696963
endloop
endfacet
facet normal 0.637729 0.637729 0.431977
outer loop
vertex 4.56636 5.07795 0.958069
vertex 4.05018 5.59412 0.958069
vertex 4.05018 5.07795 1.72009
endloop
endfacet
facet normal 0.684775 0.684775 -0.249334
outer loop
vertex 4.06962 5.07795 3.0136
vertex 4.05018 5.07795 2.96021
vertex 4.05018 5.09739 3.0136
endloop
endfacet
facet normal 0.64087 0.64087 0.422578
outer loop
vertex 4.06962 5.07795 3.0136
vertex 4.05018 5.09739 3.0136
vertex 4.05018 5.07795 3.04308
endloop
endfacet
facet normal 0.57735 -0.57735 -0.57735
outer loop
vertex 5.07795 -0.689367 -0.0696963
vertex 5.07795 -0.0608763 -0.698187
vertex 5.70644 -0.0608763 -0.0696963
endloop
endfacet
facet normal 0.704527 -0.704527 -0.0853362
outer loop
vertex 5.07795 -0.813856 0.958069
vertex 5.07795 -0.689367 -0.0696963
vertex 5.70644 -0.0608763 -0.0696963
endloop
endfacet
facet normal 0.704527 -0.704527 -0.0853362
outer loop
vertex 5.83093 -0.0608763 0.958069
vertex 5.07795 -0.813856 0.958069
vertex 5.70644 -0.0608763 -0.0696963
endloop
endfacet
facet normal 0.694971 -0.694971 0.184471
outer loop
vertex 5.07795 -0.541049 1.98583
vertex 5.07795 -0.813856 0.958069
vertex 5.83093 -0.0608763 0.958069
endloop
endfacet
facet normal 0.694971 -0.694971 0.184471
outer loop
vertex 5.55812 -0.0608763 1.98583
vertex 5.07795 -0.541049 1.98583
vertex 5.83093 -0.0608763 0.958069
endloop
endfacet
facet normal 0.703152 -0.703152 -0.10561
outer loop
vertex 5.07795 -0.695414 3.0136
vertex 5.07795 -0.541049 1.98583
vertex 5.55812 -0.0608763 1.98583
endloop
endfacet
facet normal 0.703152 -0.703152 -0.10561
outer loop
vertex 5.71249 -0.0608763 3.0136
vertex 5.07795 -0.695414 3.0136
vertex 5.55812 -0.0608763 1.98583
endloop
endfacet
facet normal 0.690147 -0.690147 0.217703
outer loop
vertex 5.07795 -0.371211 4.04136
vertex 5.07795 -0.695414 3.0136
vertex 5.71249 -0.0608763 3.0136
endloop
endfacet
facet normal 0.690147 -0.690147 0.217703
outer loop
vertex 5.38828 -0.0608763 4.04136
vertex 5.07795 -0.371211 4.04136
vertex 5.71249 -0.0608763 3.0136
endloop
endfacet
facet normal 0.57735 -0.57735 0.57735
outer loop
vertex 5.07795 -0.371211 4.04136
vertex 5.38828 -0.0608763 4.04136
vertex 5.07795 -0.0608763 4.3517
endloop
endfacet
facet normal 0.705694 -0.0631883 -0.705694
outer loop
vertex 5.79847 0.966889 -0.0696963
vertex 5.70644 -0.0608763 -0.0696963
vertex 5.07795 -0.0608763 -0.698187
endloop
endfacet
facet normal 0.705694 -0.0631883 -0.705694
outer loop
vertex 5.07795 0.966889 -0.790214
vertex 5.79847 0.966889 -0.0696963
vertex 5.07795 -0.0608763 -0.698187
endloop
endfacet
facet normal 0.988845 -0.0885418 -0.119774
outer loop
vertex 5.70644 -0.0608763 -0.0696963
vertex 5.79847 0.966889 -0.0696963
vertex 5.83093 -0.0608763 0.958069
endloop
endfacet
facet normal 0.986749 -0.0980829 -0.129249
outer loop
vertex 5.83093 -0.0608763 0.958069
vertex 5.79847 0.966889 -0.0696963
vertex 5.93309 0.966889 0.958069
endloop
endfacet
facet normal 0.9621 -0.0956328 0.255377
outer loop
vertex 5.83093 -0.0608763 0.958069
vertex 5.93309 0.966889 0.958069
vertex 5.55812 -0.0608763 1.98583
endloop
endfacet
facet normal 0.964798 -0.115932 0.236062
outer loop
vertex 5.55812 -0.0608763 1.98583
vertex 5.93309 0.966889 0.958069
vertex 5.68162 0.966889 1.98583
endloop
endfacet
facet normal 0.981999 -0.117999 -0.147491
outer loop
vertex 5.55812 -0.0608763 1.98583
vertex 5.68162 0.966889 1.98583
vertex 5.71249 -0.0608763 3.0136
endloop
endfacet
facet normal 0.957649 -0.188714 -0.217475
outer loop
vertex 5.71249 -0.0608763 3.0136
vertex 5.68162 0.966889 1.98583
vertex 5.91502 0.966889 3.0136
endloop
endfacet
facet normal 0.937269 -0.184698 0.295656
outer loop
vertex 5.71249 -0.0608763 3.0136
vertex 5.91502 0.966889 3.0136
vertex 5.38828 -0.0608763 4.04136
endloop
endfacet
facet normal 0.935195 -0.312278 0.167014
outer loop
vertex 5.38828 -0.0608763 4.04136
vertex 5.91502 0.966889 3.0136
vertex 5.73147 0.966889 4.04136
endloop
endfacet
facet normal 0.688184 -0.229796 0.688184
outer loop
vertex 5.38828 -0.0608763 4.04136
vertex 5.73147 0.966889 4.04136
vertex 5.07795 0.966889 4.69489
endloop
endfacet
facet normal 0.688184 -0.229796 0.688184
outer loop
vertex 5.07795 -0.0608763 4.3517
vertex 5.38828 -0.0608763 4.04136
vertex 5.07795 0.966889 4.69489
endloop
endfacet
facet normal 0.679328 0.277536 -0.679328
outer loop
vertex 5.37858 1.99465 -0.0696963
vertex 5.79847 0.966889 -0.0696963
vertex 5.07795 0.966889 -0.790214
endloop
endfacet
facet normal 0.679328 0.277536 -0.679328
outer loop
vertex 5.07795 1.99465 -0.370326
vertex 5.37858 1.99465 -0.0696963
vertex 5.07795 0.966889 -0.790214
endloop
endfacet
facet normal 0.918993 0.37545 -0.120374
outer loop
vertex 5.79847 0.966889 -0.0696963
vertex 5.37858 1.99465 -0.0696963
vertex 5.93309 0.966889 0.958069
endloop
endfacet
facet normal 0.929255 0.324179 -0.177181
outer loop
vertex 5.93309 0.966889 0.958069
vertex 5.37858 1.99465 -0.0696963
vertex 5.57454 1.99465 0.958069
endloop
endfacet
facet normal 0.624949 0.611399 0.485417
outer loop
vertex 5.07795 1.99465 1.46853
vertex 5.07795 1.58394 1.98583
vertex 5.68162 0.966889 1.98583
endloop
endfacet
facet normal 0.567376 0.611079 0.551967
outer loop
vertex 5.07795 1.99465 1.46853
vertex 5.68162 0.966889 1.98583
vertex 5.57454 1.99465 0.958069
endloop
endfacet
facet normal 0.919963 0.320938 0.225092
outer loop
vertex 5.57454 1.99465 0.958069
vertex 5.68162 0.966889 1.98583
vertex 5.93309 0.966889 0.958069
endloop
endfacet
facet normal 0.552892 0.63561 -0.538805
outer loop
vertex 5.07795 1.58394 1.98583
vertex 5.07795 1.99465 2.47034
vertex 5.60737 1.99465 3.0136
endloop
endfacet
facet normal 0.599969 0.58696 -0.543613
outer loop
vertex 5.07795 1.58394 1.98583
vertex 5.60737 1.99465 3.0136
vertex 5.68162 0.966889 1.98583
endloop
endfacet
facet normal 0.936103 0.280213 -0.212582
outer loop
vertex 5.68162 0.966889 1.98583
vertex 5.60737 1.99465 3.0136
vertex 5.91502 0.966889 3.0136
endloop
endfacet
facet normal 0.765154 0.540463 0.349913
outer loop
vertex 5.07795 1.99465 3.88298
vertex 5.07795 1.89211 4.04136
vertex 5.73147 0.966889 4.04136
endloop
endfacet
facet normal 0.724843 0.528929 0.441402
outer loop
vertex 5.07795 1.99465 3.88298
vertex 5.73147 0.966889 4.04136
vertex 5.60737 1.99465 3.0136
endloop
endfacet
facet normal 0.94428 0.282661 0.168636
outer loop
vertex 5.60737 1.99465 3.0136
vertex 5.73147 0.966889 4.04136
vertex 5.91502 0.966889 3.0136
endloop
endfacet
facet normal 0.632592 0.446828 0.632592
outer loop
vertex 5.73147 0.966889 4.04136
vertex 5.07795 1.89211 4.04136
vertex 5.07795 0.966889 4.69489
endloop
endfacet
facet normal 0.702365 -0.115616 -0.702365
outer loop
vertex 5.54776 3.02242 -0.0696963
vertex 5.37858 1.99465 -0.0696963
vertex 5.07795 1.99465 -0.370326
endloop
endfacet
facet normal 0.702365 -0.115616 -0.702365
outer loop
vertex 5.07795 3.02242 -0.539506
vertex 5.54776 3.02242 -0.0696963
vertex 5.07795 1.99465 -0.370326
endloop
endfacet
facet normal 0.969708 -0.159623 -0.184895
outer loop
vertex 5.37858 1.99465 -0.0696963
vertex 5.54776 3.02242 -0.0696963
vertex 5.57454 1.99465 0.958069
endloop
endfacet
facet normal 0.931034 -0.245629 -0.269893
outer loop
vertex 5.57454 1.99465 0.958069
vertex 5.54776 3.02242 -0.0696963
vertex 5.84569 3.02242 0.958069
endloop
endfacet
facet normal 0.605221 -0.535761 0.588785
outer loop
vertex 5.07795 2.56316 1.98583
vertex 5.07795 1.99465 1.46853
vertex 5.57454 1.99465 0.958069
endloop
endfacet
facet normal 0.579141 -0.561903 0.590644
outer loop
vertex 5.07795 2.56316 1.98583
vertex 5.57454 1.99465 0.958069
vertex 5.52354 3.02242 1.98583
endloop
endfacet
facet normal 0.925349 -0.244129 0.290051
outer loop
vertex 5.52354 3.02242 1.98583
vertex 5.57454 1.99465 0.958069
vertex 5.84569 3.02242 0.958069
endloop
endfacet
facet normal 0.555777 -0.539235 -0.632722
outer loop
vertex 5.07795 1.99465 2.47034
vertex 5.07795 2.56316 1.98583
vertex 5.52354 3.02242 1.98583
endloop
endfacet
facet normal 0.603345 -0.538762 -0.587972
outer loop
vertex 5.07795 1.99465 2.47034
vertex 5.52354 3.02242 1.98583
vertex 5.60737 1.99465 3.0136
endloop
endfacet
facet normal 0.959587 -0.155969 -0.234236
outer loop
vertex 5.60737 1.99465 3.0136
vertex 5.52354 3.02242 1.98583
vertex 5.77442 3.02242 3.0136
endloop
endfacet
facet normal 0.844598 -0.148727 0.514329
outer loop
vertex 5.07795 2.5424 4.04136
vertex 5.07795 1.99465 3.88298
vertex 5.60737 1.99465 3.0136
endloop
endfacet
facet normal 0.800739 -0.248628 0.544978
outer loop
vertex 5.07795 2.5424 4.04136
vertex 5.60737 1.99465 3.0136
vertex 5.227 3.02242 4.04136
endloop
endfacet
facet normal 0.873665 -0.142003 0.465343
outer loop
vertex 5.227 3.02242 4.04136
vertex 5.60737 1.99465 3.0136
vertex 5.77442 3.02242 3.0136
endloop
endfacet
facet normal 0.690656 -0.214447 0.690656
outer loop
vertex 5.07795 2.5424 4.04136
vertex 5.227 3.02242 4.04136
vertex 5.07795 3.02242 4.19041
endloop
endfacet
facet normal 0.66896 0.324016 -0.66896
outer loop
vertex 5.54776 3.02242 -0.0696963
vertex 5.07795 3.02242 -0.539506
vertex 5.07795 3.99238 -0.0696963
endloop
endfacet
facet normal 0.825101 0.405241 -0.393685
outer loop
vertex 5.07795 3.99238 -0.0696963
vertex 5.07795 4.05018 -0.0101976
vertex 5.53994 4.05018 0.958069
endloop
endfacet
facet normal 0.827069 0.400597 -0.394309
outer loop
vertex 5.07795 3.99238 -0.0696963
vertex 5.53994 4.05018 0.958069
vertex 5.54776 3.02242 -0.0696963
endloop
endfacet
facet normal 0.923501 0.274731 -0.267709
outer loop
vertex 5.54776 3.02242 -0.0696963
vertex 5.53994 4.05018 0.958069
vertex 5.84569 3.02242 0.958069
endloop
endfacet
facet normal 0.708145 0.488893 0.509426
outer loop
vertex 5.07795 4.05018 1.6189
vertex 5.07795 3.66784 1.98583
vertex 5.52354 3.02242 1.98583
endloop
endfacet
facet normal 0.715117 0.488531 0.499945
outer loop
vertex 5.07795 4.05018 1.6189
vertex 5.52354 3.02242 1.98583
vertex 5.53994 4.05018 0.958069
endloop
endfacet
facet normal 0.917953 0.27308 0.287733
outer loop
vertex 5.53994 4.05018 0.958069
vertex 5.52354 3.02242 1.98583
vertex 5.84569 3.02242 0.958069
endloop
endfacet
facet normal 0.806815 0.557013 -0.196944
outer loop
vertex 5.77442 3.02242 3.0136
vertex 5.52354 3.02242 1.98583
vertex 5.07795 3.66784 1.98583
endloop
endfacet
facet normal 0.798564 0.574186 -0.180568
outer loop
vertex 5.07795 3.99105 3.0136
vertex 5.77442 3.02242 3.0136
vertex 5.07795 3.66784 1.98583
endloop
endfacet
facet normal 0.745213 0.535825 0.396925
outer loop
vertex 5.227 3.02242 4.04136
vertex 5.77442 3.02242 3.0136
vertex 5.07795 3.99105 3.0136
endloop
endfacet
facet normal 0.721186 0.55328 0.41686
outer loop
vertex 5.07795 3.2167 4.04136
vertex 5.227 3.02242 4.04136
vertex 5.07795 3.99105 3.0136
endloop
endfacet
facet normal 0.621542 0.476835 0.621542
outer loop
vertex 5.227 3.02242 4.04136
vertex 5.07795 3.2167 4.04136
vertex 5.07795 3.02242 4.19041
endloop
endfacet
facet normal 0.670001 0.670001 -0.319682
outer loop
vertex 5.53994 4.05018 0.958069
vertex 5.07795 4.05018 -0.0101976
vertex 5.07795 4.51218 0.958069
endloop
endfacet
facet normal 0.633883 0.633883 0.443154
outer loop
vertex 5.53994 4.05018 0.958069
vertex 5.07795 4.51218 0.958069
vertex 5.07795 4.05018 1.6189
endloop
endfacet
endsolid
